# xmcd
#
# Track frame offsets: 
#        150
#        8151
#        23281
#        46230
#        71876
#        95858
#        110507
#        130008
#        149203
#        165678
#        192410
#        210104
#        236936
#        263366
#
# Disc length: 3768 seconds
#
# Revision: 1
# Processed by: cddbd v1.5.2PL0 Copyright (c) Steve Scherf et al.
# Submitted via: ExactAudioCopyFreeDBPlugin 1.0
#
DISCID=c20eb60e
DTITLE=Bassekou Kouyate and Ngoni ba - Segu Blue
DYEAR=2007
DGENRE=West Africa
TTITLE0=Tabali te
TTITLE1=Bassekou
TTITLE2=Jonkoloni
TTITLE3=Bassekou Kouyate and Ngoni ba feat Kasse Mady Diabate - Juru nan
TTITLE3=i
TTITLE4=Bassekou Kouyate and Ngoni ba feat Zoumana Tereta - Mbowdi
TTITLE5=The River Tune
TTITLE6=Andra's Song
TTITLE7=Ngoni fola
TTITLE8=Bassekou Kouyate and Ngoni ba feat Lobi Traore - Banani
TTITLE9=Bassekou Kouyate and Ngoni ba feat Zoumana Tereta - Bala
TTITLE10=Segu tonjon
TTITLE11=Bassekou Kouyate and Ngoni ba feat Kasse Mady Diabate - Sinsani
TTITLE12=Lament for Ali Farka
TTITLE13=Segu Blue (Poyi)
EXTD=YEAR: 2007
EXTT0=
EXTT1=
EXTT2=
EXTT3=
EXTT4=
EXTT5=
EXTT6=
EXTT7=
EXTT8=
EXTT9=
EXTT10=
EXTT11=
EXTT12=
EXTT13=
PLAYORDER=
